PathFileType	4	(X/Y/Z)	D:\TRACE\v60_Jaco2_6-2-23\JustBodyDRS_Motion3_1-v60.trc
DataRate	CameraRate	NumFrames	NumMarkers	Units	OrigDataRate	OrigDataStartFrame	OrigNumFrames
100.00	100.00	      14	9	mm	100.00	6126	      7000
Frame#	Time	front left toe			Front right toe			aft left toe			aft right toe			Arm			FL body			FR body			AL Body			AR Body			
		X1	Y1	Z1	X2	Y2	Z2	X3	Y3	Z3	X4	Y4	Z4	X5	Y5	Z5	X6	Y6	Z6	X7	Y7	Z7	X8	Y8	Z8	X9	Y9	Z9	

6126	61.250	-179.09190	107.07364	-87.66386	174.36212	20.82930	-91.55843	-196.60930	-5.14856	537.02924	206.11623	77.81250	528.01471	13.37647	1215.40796	-64.47920	-80.25986	593.96991	-221.66428	78.61927	591.65674	-223.08031	-65.95828	518.14691	719.96948	83.14435	506.81906	717.46490	
6127	61.260	-177.08408	97.83298	-87.65629	174.31488	20.71232	-91.65031	-196.64355	-5.02199	536.96234	210.81465	68.20854	527.52264	13.16262	1215.49561	-64.53901	-79.45499	593.81042	-221.86919	79.06821	591.66693	-223.42650	-65.10139	518.04639	719.82281	83.72773	506.94757	717.29852	
6128	61.270	-174.79901	87.66661	-86.84712	174.13307	20.60830	-91.80899	-196.31921	-5.25350	536.93689	216.01938	58.57052	527.03815	13.17393	1215.35706	-64.66954	-78.68960	593.56464	-221.98129	79.96771	591.59851	-223.53880	-63.37101	517.87970	719.45428	85.33206	506.95926	717.11292	
6129	61.280	-172.06409	76.88621	-85.64095	174.09079	20.54695	-91.88548	-196.55696	-4.86693	537.11780	220.97499	49.37171	526.40308	13.52355	1215.23267	-64.92606	-77.84534	593.22974	-221.91055	80.32328	591.49060	-223.51236	-62.28066	518.00421	719.25104	86.45312	507.23724	716.98602	
6130	61.290	-169.49905	65.90134	-84.29626	174.12006	20.54643	-92.11982	-196.47899	-4.65810	537.20587	225.41028	40.18000	525.74976	14.39361	1215.21008	-65.23812	-77.02914	593.08911	-222.03223	81.11516	591.51563	-223.71970	-60.61385	518.02728	719.78699	87.45969	507.50113	716.88007	
6131	61.300	-167.19109	55.07478	-82.82043	174.05229	20.48701	-92.27146	-196.49088	-4.33040	537.21674	229.01395	31.07573	524.87762	15.00609	1215.33276	-65.70669	-76.40007	593.05066	-222.14833	82.06720	591.59821	-223.94624	-58.99709	517.83624	719.24231	96.73484	506.60443	715.30884	
6132	61.310	-165.48509	45.08890	-81.84946	174.04695	20.35561	-92.40298	-196.56418	-3.90148	537.16986	231.94016	22.96433	524.24713	15.26931	1215.24634	-65.96045	-75.40809	592.78827	-222.56883	83.06076	591.60034	-223.93324	-57.51590	518.09473	719.20819	98.38011	506.80746	715.24170	
6133	61.320	-163.74254	36.48546	-81.35024	173.97064	20.18703	-92.53758	-196.57253	-3.48181	537.18756	234.66562	15.32081	523.79736	15.22152	1214.97388	-66.34664	-74.33911	592.44940	-222.69855	84.50678	591.34882	-224.41501	-55.90668	518.14655	719.32135	99.86956	507.05347	715.08630	
6134	61.330	-162.09436	29.05424	-81.50893	173.91695	20.05337	-92.57841	-196.59686	-3.15397	537.18616	235.96588	8.16525	523.22925	14.85055	1214.82507	-66.82671	-73.18920	592.08978	-222.87468	85.70183	591.40247	-224.69037	-54.20626	517.80847	719.08508	101.75253	507.16980	714.90283	
6135	61.340	-160.70361	23.11999	-82.06976	173.88283	19.96827	-92.57342	-196.08836	-3.34265	537.09216	237.44429	2.21600	522.64819	14.52317	1214.77112	-67.16799	-71.73500	591.73505	-222.85060	86.91146	591.25232	-224.95374	-52.59119	517.75470	718.75232	103.93221	507.17548	714.64679	
6136	61.350	-160.94882	22.85514	-84.46540	174.09167	19.86811	-92.57088	-195.96680	-3.02289	536.99701	238.03049	-0.95652	520.73895	14.78525	1214.54016	-67.56401	-70.63850	591.72815	-223.10150	87.85480	591.28540	-224.99594	-51.09648	517.71741	718.37036	105.25264	507.48288	714.21851	
6137	61.360	-161.29652	20.62631	-83.72312	173.98668	19.60547	-92.74122	-195.75626	-2.69565	536.95770	239.22285	-2.71025	521.72900	15.54671	1214.52600	-67.90548	-69.13514	591.77380	-223.16890	89.31398	591.55487	-225.16983	-48.98478	518.49042	718.15039	106.81224	508.08441	714.05652	
6138	61.370	-161.91644	21.85007	-84.46729	174.15665	19.91391	-92.74692	-195.48775	-2.25529	536.90259	239.36343	-1.78322	520.23438	16.36912	1215.07605	-68.31487	-67.76920	592.29028	-223.39024	90.65800	592.15198	-225.36473	-47.48594	519.97614	718.28827	107.97914	509.96094	714.08063	
6139	61.380	-161.33972	22.51727	-82.97609	173.89952	20.31349	-92.88808	-195.74608	-0.47048	536.68530	239.19586	-2.23471	521.11334	18.34570	1216.11902	-68.88326	-65.82838	591.89319	-223.30669	92.44995	592.28674	-225.33131	-46.51264	521.77069	718.62317	109.31432	511.93170	714.28754	
